<?xml version="1.0" encoding="utf-8"?>
<!-- Generator: Adobe Illustrator 25.0.1, SVG Export Plug-In . SVG Version: 6.00 Build 0)  -->
<svg version="1.0" id="katman_1" xmlns="http://www.w3.org/2000/svg" xmlns:xlink="http://www.w3.org/1999/xlink" x="0px" y="0px"
	 viewBox="0 0 560 400" style="enable-background:new 0 0 560 400;" xml:space="preserve">
<style type="text/css">
	.st0{fill:url(#SVGID_1_);}
	.st1{fill:#0A3A54;}
</style>
<g>
	
		<linearGradient id="SVGID_1_" gradientUnits="userSpaceOnUse" x1="229.345" y1="247.722" x2="329.2464" y2="247.722" gradientTransform="matrix(1 0 0 -1 0 402)">
		<stop  offset="0" style="stop-color:#EC8523"/>
		<stop  offset="0.35" style="stop-color:#ED7745"/>
		<stop  offset="0.46" style="stop-color:#EC7046"/>
		<stop  offset="0.79" style="stop-color:#E95D48"/>
		<stop  offset="1" style="stop-color:#E85448"/>
	</linearGradient>
	<path class="st0" d="M296.5,190.6h-67.1v-72.7h100.1v72.7h-8.8v-64.1h-82.5V182h58.4"/>
	<path class="st1" d="M117.2,247c-9.9,0-17.2-5.7-17.2-18.3v-20.1h7.7v19.9c0,8.1,3.5,12,9.6,12c6.1,0,9.6-4,9.6-12v-19.9h7.5v20.1
		C134.3,241.4,127.1,247,117.2,247z M149,231.3V246h-7.2v-26.8h6.6l0.4,4.9c1.6-3.1,5.5-5.7,10-5.7v7.1
		C153.8,224.2,149,226.7,149,231.3L149,231.3z M179.7,246.8c-3.9,0-7.8-1.8-10-5.1l-0.2,4.3h-6.5v-37.4h7.2v14.1
		c2.3-2.9,6-4.5,9.6-4.5c7.3,0,12.6,6.1,12.6,14.2C192.4,240.5,187,246.8,179.7,246.8L179.7,246.8z M177.5,223.7
		c-4.2,0-7.7,3.2-7.7,8.9c0,5.5,3.5,8.9,7.7,8.9c4.2,0,7.7-3.2,7.7-8.9C185.1,227,181.7,223.7,177.5,223.7z M219.4,246.1l-0.2-4.3
		c-2.3,3.2-6.3,5.1-10,5.1c-7.3,0-12.6-6.1-12.6-14.2c0-8.1,5.4-14.2,12.6-14.2c3.9,0,7.8,1.8,10,5.1l0.2-4.3h6.5v27H219.4z
		 M211.3,223.7c-4.2,0-7.7,3.2-7.7,8.9c0,5.5,3.5,8.9,7.7,8.9s7.7-3.2,7.7-8.9C218.9,227,215.5,223.7,211.3,223.7z M252.4,246.1
		v-14.9c0-5.3-1.8-7-5.2-7c-3.5,0-7.2,3.1-7.2,6.9v15h-7.2v-27h6.6l0.4,4.9c1.8-3.5,5.9-5.8,10-5.8c7.2,0,9.9,4.9,9.9,11.7v16h-7.2
		V246.1z M279.3,246.1v-37.4h7.6v31.5h16.7v5.9H279.3z M329.1,246.1l-0.2-4.3c-2.3,3.2-6.3,5.1-10,5.1c-7.3,0-12.6-6.1-12.6-14.2
		c0-8.1,5.4-14.2,12.6-14.2c3.9,0,7.8,1.8,10,5.1l0.2-4.3h6.5v27H329.1z M321,223.7c-4.2,0-7.7,3.2-7.7,8.9c0,5.5,3.5,8.9,7.7,8.9
		c4.2,0,7.7-3.2,7.7-8.9S325.2,223.7,321,223.7z M364.1,246.1l-0.2-4.3c-2.3,3.2-6.3,5.1-10,5.1c-7.3,0-12.6-6.1-12.6-14.2
		c0-8.1,5.4-14.2,12.6-14.2c3.6,0,7.3,1.4,9.6,4.5v-14.2h7.2v37.4H364.1z M356,223.7c-4.2,0-7.7,3.2-7.7,8.9c0,5.5,3.5,8.9,7.7,8.9
		s7.7-3.2,7.7-8.9S360.4,223.7,356,223.7z M399.2,246.1l-0.2-4.3c-2.3,3.2-6.3,5.1-10,5.1c-7.3,0-12.6-6.1-12.6-14.2
		c0-8.1,5.4-14.2,12.6-14.2c3.6,0,7.3,1.4,9.6,4.5v-14.2h7.2v37.4H399.2z M391.2,223.7c-4.2,0-7.7,3.2-7.7,8.9
		c0,5.5,3.5,8.9,7.7,8.9c4.2,0,7.7-3.2,7.7-8.9S395.4,223.7,391.2,223.7z M436.5,232.7h-17.9c-0.2,4.1,1.9,8.8,9.1,8.8
		c3,0,6.6-1.3,8.8-3.1v5.3c-2.5,2-6.5,3.1-10.9,3.1c-8.3,0-14.1-6-14.1-14.4c0-8.7,6.6-14.1,13.6-14.1c6.9,0,12,4.3,12,10.7
		C436.9,230.2,436.8,231.8,436.5,232.7L436.5,232.7z M425.1,223c-3,0-5.7,1.8-6.3,5.9h11.6C431,225.6,428.8,223,425.1,223z
		 M450.3,231.3V246H443v-26.8h6.6l0.4,4.9c1.6-3.1,5.5-5.7,10-5.7v7.1C455.1,224.2,450.3,226.7,450.3,231.3z M166.8,281.1
		c2.5,0,2.8-0.5,2.8-3.5v-9.9c0-3-0.2-3.5-2.8-3.5v-0.6h7.8v0.6c-2.5,0-2.8,0.5-2.8,3.5v9.4c0,3,0.2,3.5,2.8,3.5h2
		c2.6,0,2.9-0.8,3.4-2.3l0.1-0.6h0.6l-0.2,4h-13.7V281.1z M188.6,275.1c0-4.1,2.9-6.9,5.9-6.9c2.9,0,4.8,2,4.8,4.8
		c0,0.5-0.1,0.8-0.1,1.2H191v1c0,2.8,0.8,5.7,4.3,5.7c1.4,0,2.9-0.8,3.9-1.8l0.6,0.7c-1.1,1.3-2.6,2.3-5.1,2.3
		C190.8,282.1,188.6,279.1,188.6,275.1L188.6,275.1z M197.1,273c0-0.2,0.1-0.5,0.1-0.8c0-1.6-0.7-2.8-2.5-2.8
		c-1.7,0-2.9,1.2-3.4,3.6L197.1,273z M210,278.2v-8.5H208v-0.8c2-0.5,2.6-1.8,2.9-4.1h1.2v3.9h2.8v1.1h-2.8v8.5
		c0,1.7,0.2,2.4,1.3,2.4c0.7,0,1.2-0.4,1.9-1.1l0.6,0.6c-1,1.2-1.9,1.9-3.2,1.9C210.8,282.1,210,281,210,278.2L210,278.2z
		 M224.8,269.1c1.1-1.2,1.4-2,1.7-3.2h-0.2c-0.7,0-1.4-0.7-1.4-1.4s0.7-1.4,1.4-1.4s1.6,0.6,1.6,1.8c0,1.3-0.8,3.4-2.6,4.6
		L224.8,269.1z M236,277.2h0.6c0.1,1.7,1.7,3.6,4.2,3.6c1.6,0,2.3-1,2.3-2.2c0-1-0.7-1.7-2.3-2.5l-2-1.1c-1.4-0.7-2.4-1.9-2.4-3.6
		c0-2,1.8-3.4,4-3.4c1.7,0,2.6,0.7,3,1.1c0.2-0.2,0.4-0.7,0.4-1h0.5v3.6h-0.6c-0.1-1.6-1.3-2.6-3.1-2.6c-1.6,0-2.2,1-2.2,1.9
		c0,1,0.8,1.7,2.3,2.4l1.8,0.8c1.7,0.8,2.6,1.9,2.6,3.7c0,2.3-1.8,3.9-4.3,3.9c-1.3,0-2.8-0.6-3.5-1.4c-0.4,0.4-0.6,0.8-0.6,1.3
		h-0.5v-4.6H236z M266.3,272.6c0-5.3,3.4-9.6,8.2-9.6c2.2,0,4,0.7,5.2,2.2c0.4-0.4,0.7-0.7,0.8-1.4h0.6v6.3h-0.7
		c-0.8-4-2.8-5.8-5.7-5.8c-4.5,0-5.8,4.6-5.8,8.3s1.3,8.3,5.8,8.3c2.9,0,4.8-1.9,5.7-5.8h0.6v6.3h-0.6c-0.1-0.7-0.5-1.2-0.8-1.4
		c-1.2,1.4-3,2.2-5.2,2.2C269.7,282.2,266.3,277.8,266.3,272.6z M290.1,281.1c2,0,2.3-0.5,2.3-3.5v-4.5c0-3-0.2-3.5-2.3-3.5v-0.6
		l3.9-0.7c0.2,0.4,0.6,1.7,0.6,2.9c0.6-1.6,1.8-2.8,3.2-2.8c2,0,2.5,1.4,2.5,2.2s-0.2,1.6-1.3,1.6c-0.6,0-1.1-0.6-1.1-1.2
		c0-0.7-0.2-1.3-1.1-1.3s-2.4,1.7-2.4,4.6v3.5c0,3,0.2,3.5,2.3,3.5v0.6h-6.9v-0.7L290.1,281.1z M308.3,275.1c0-4.1,2.9-6.9,5.9-6.9
		c2.9,0,4.8,2,4.8,4.8c0,0.5-0.1,0.8-0.1,1.2h-8.2v1c0,2.8,0.8,5.7,4.3,5.7c1.4,0,2.9-0.8,3.9-1.8l0.6,0.7c-1.1,1.3-2.6,2.3-5.1,2.3
		C310.6,282.1,308.3,279.1,308.3,275.1z M316.7,273v-0.8c0-1.6-0.7-2.8-2.5-2.8c-1.7,0-2.9,1.2-3.4,3.6L316.7,273z M328.1,278.8
		c0-3,3.1-4.5,7.5-5.2v-0.8c0-2.5-0.6-3.4-2.3-3.4c-1,0-2.3,0.6-2.3,1.8c0,0.6-0.5,1.1-1.1,1.1c-0.6,0-1.1-0.5-1.1-1.1
		c0-1.4,2.2-2.8,4.5-2.8c3.4,0,4.6,1.6,4.6,4.5v6.7c0,0.8,0.2,1.3,0.8,1.3c0.4,0,0.7-0.2,1-0.5l0.5,0.6c-0.6,0.7-1.6,1-2.3,1
		c-1.3,0-1.8-0.8-2-2c-1.7,1.6-2.6,2-4.1,2C329.5,281.9,328.1,280.6,328.1,278.8L328.1,278.8z M335.7,278.9v-4.5
		c-3.7,0.7-5.2,2.2-5.2,4c0,1.3,0.7,2,1.9,2C333.2,280.6,334,280.4,335.7,278.9L335.7,278.9z M349.7,278.2v-8.5h-1.9v-0.8
		c2-0.5,2.6-1.8,2.9-4.1h1.2v3.9h2.8v1.1h-2.8v8.5c0,1.7,0.2,2.4,1.3,2.4c0.7,0,1.2-0.4,1.9-1.1l0.6,0.6c-1,1.2-1.9,1.9-3.2,1.9
		C350.5,282.1,349.7,281,349.7,278.2L349.7,278.2z M363.7,275.1c0-4.1,2.9-6.9,5.9-6.9c2.9,0,4.8,2,4.8,4.8c0,0.5-0.1,0.8-0.1,1.2
		h-8.2v1c0,2.8,0.8,5.7,4.3,5.7c1.4,0,2.9-0.8,3.9-1.8l0.6,0.7c-1.1,1.3-2.6,2.3-5.1,2.3C366,282.1,363.7,279.1,363.7,275.1z
		 M372.2,273v-0.8c0-1.6-0.7-2.8-2.5-2.8c-1.7,0-2.9,1.2-3.4,3.6L372.2,273z"/>
</g>
</svg>
